{"title":"ALICE IN WONDERLAND XViD (2010) [TS] [FUDGESOCIETY]","uid":5471658,"size":1504919322,"categoryP":"video","categoryS":"movies","magnet":"?xt=urn:btih:eaf0200eb1606a3c2c07ce01c249d99febbe403e&amp;dn=ALICE+IN+WONDERLAND+XViD+%282010%29+%5BTS%5D+%5BFUDGESOCIETY%5D&amp;tr=udp%3A%2F%2Ftracker.openbittorrent.com%3A80&amp;tr=udp%3A%2F%2Fopen.demonii.com%3A1337&amp;tr=udp%3A%2F%2Ftracker.coppersurfer.tk%3A6969&amp;tr=udp%3A%2F%2Fexodus.desync.com%3A6969","seeders":0,"leechers":0,"uploader":"FudgeSociety","files":1,"time":1269920417,"description":"Runtime.......:1h 40mn\nVideo\nID : 0\nFormat : MPEG-4 Visual\nFormat profile : Advanced Simple@L5\nFormat settings, BVOP : Yes\nFormat settings, QPel : No\nFormat settings, GMC : No warppoints\nFormat settings, Matrix : Default (MPEG)\nMuxing mode : Packed bitstream\nCodec ID : XVID\nCodec ID/Hint : XviD\nDuration : 1h 40mn\nBit rate : 1 863 Kbps\nWidth : 704 pixels\nHeight : 368 pixels\nDisplay aspect ratio : 1.913\nFrame rate : 23.976 fps\nResolution : 24 bits\nColorimetry : 4:2:0\nScan type : Progressive\nBits/(Pixel*Frame) : 0.300\nStream size : 1.31 GiB (93%)\nWriting library : XviD 1.2.1 (UTC 2008-12-04)\nAudio\nID : 1\nFormat : MPEG Audio\nFormat version : Version 1\nFormat profile : Layer 3\nCodec ID : 55\nCodec ID/Hint : MP3\nDuration : 1h 40mn\nBit rate mode : Constant\nBit rate : 128 Kbps\nChannel(s) : 2 channels\nSampling rate : 48.0 KHz\nResolution : 16 bits\nStream size : 91.8 MiB (6%)\nAlignment : Split accross interleaves\nInterleave, duration : 42 ms (1.00 video frame)\nInterleave, preload duration : 500 ms\n\nCREDIT TO RAYMONDHOME, SheDevil, IMAGINE\nI'm just making a second torrent to make it harder to track.\n\nBUT THANKS GOES TO THOSE GUYS!! MAKING THE GREATEST TS's EVER","torrent":{"xt":"urn:btih:eaf0200eb1606a3c2c07ce01c249d99febbe403e","amp;dn":"ALICE+IN+WONDERLAND+XViD+%282010%29+%5BTS%5D+%5BFUDGESOCIETY%5D","amp;tr":["udp%3A%2F%2Ftracker.openbittorrent.com%3A80","udp%3A%2F%2Fopen.demonii.com%3A1337","udp%3A%2F%2Ftracker.coppersurfer.tk%3A6969","udp%3A%2F%2Fexodus.desync.com%3A6969"],"infoHash":"eaf0200eb1606a3c2c07ce01c249d99febbe403e","infoHashBuffer":{"type":"Buffer","data":[234,240,32,14,177,96,106,60,44,7,206,1,194,73,217,159,235,190,64,62]},"announce":[],"urlList":[]}}